<mxfile host="app.diagrams.net" agent="Mozilla/5.0 (Windows NT 10.0; Win64; x64) AppleWebKit/537.36 (KHTML, like Gecko) Chrome/140.0.0.0 Safari/537.36" version="28.2.5">
  <diagram id="C5RBs43oDa-KdzZeNtuy" name="Page-1">
    <mxGraphModel dx="496" dy="1420" grid="1" gridSize="10" guides="1" tooltips="1" connect="1" arrows="1" fold="1" page="1" pageScale="1" pageWidth="827" pageHeight="1169" math="0" shadow="0">
      <root>
        <mxCell id="WIyWlLk6GJQsqaUBKTNV-0" />
        <mxCell id="WIyWlLk6GJQsqaUBKTNV-1" parent="WIyWlLk6GJQsqaUBKTNV-0" />
        <mxCell id="zODg9NQr7k5FmSjFGPXt-0" value="" style="edgeStyle=orthogonalEdgeStyle;rounded=0;orthogonalLoop=1;jettySize=auto;html=1;" edge="1" parent="WIyWlLk6GJQsqaUBKTNV-1" source="zODg9NQr7k5FmSjFGPXt-1" target="zODg9NQr7k5FmSjFGPXt-3">
          <mxGeometry relative="1" as="geometry" />
        </mxCell>
        <mxCell id="zODg9NQr7k5FmSjFGPXt-1" value="Start" style="rounded=1;whiteSpace=wrap;html=1;" vertex="1" parent="WIyWlLk6GJQsqaUBKTNV-1">
          <mxGeometry x="370" y="-10" width="120" height="60" as="geometry" />
        </mxCell>
        <mxCell id="zODg9NQr7k5FmSjFGPXt-2" value="" style="edgeStyle=orthogonalEdgeStyle;rounded=0;orthogonalLoop=1;jettySize=auto;html=1;" edge="1" parent="WIyWlLk6GJQsqaUBKTNV-1" source="zODg9NQr7k5FmSjFGPXt-3" target="zODg9NQr7k5FmSjFGPXt-5">
          <mxGeometry relative="1" as="geometry" />
        </mxCell>
        <mxCell id="zODg9NQr7k5FmSjFGPXt-3" value="n, m" style="shape=parallelogram;perimeter=parallelogramPerimeter;whiteSpace=wrap;html=1;fixedSize=1;" vertex="1" parent="WIyWlLk6GJQsqaUBKTNV-1">
          <mxGeometry x="370" y="90" width="120" height="60" as="geometry" />
        </mxCell>
        <mxCell id="zODg9NQr7k5FmSjFGPXt-4" value="" style="edgeStyle=orthogonalEdgeStyle;rounded=0;orthogonalLoop=1;jettySize=auto;html=1;" edge="1" parent="WIyWlLk6GJQsqaUBKTNV-1" source="zODg9NQr7k5FmSjFGPXt-5" target="zODg9NQr7k5FmSjFGPXt-9">
          <mxGeometry relative="1" as="geometry" />
        </mxCell>
        <mxCell id="zODg9NQr7k5FmSjFGPXt-5" value="tek_cemi = 0&lt;div&gt;i = n&lt;/div&gt;" style="whiteSpace=wrap;html=1;" vertex="1" parent="WIyWlLk6GJQsqaUBKTNV-1">
          <mxGeometry x="370" y="190" width="120" height="60" as="geometry" />
        </mxCell>
        <mxCell id="zODg9NQr7k5FmSjFGPXt-6" value="" style="edgeStyle=orthogonalEdgeStyle;rounded=0;orthogonalLoop=1;jettySize=auto;html=1;" edge="1" parent="WIyWlLk6GJQsqaUBKTNV-1" source="zODg9NQr7k5FmSjFGPXt-9" target="zODg9NQr7k5FmSjFGPXt-14">
          <mxGeometry relative="1" as="geometry" />
        </mxCell>
        <mxCell id="zODg9NQr7k5FmSjFGPXt-7" value="TRUE" style="edgeLabel;html=1;align=center;verticalAlign=middle;resizable=0;points=[];" vertex="1" connectable="0" parent="zODg9NQr7k5FmSjFGPXt-6">
          <mxGeometry x="-0.3894" relative="1" as="geometry">
            <mxPoint as="offset" />
          </mxGeometry>
        </mxCell>
        <mxCell id="zODg9NQr7k5FmSjFGPXt-8" value="" style="edgeStyle=orthogonalEdgeStyle;rounded=0;orthogonalLoop=1;jettySize=auto;html=1;" edge="1" parent="WIyWlLk6GJQsqaUBKTNV-1" source="zODg9NQr7k5FmSjFGPXt-9" target="zODg9NQr7k5FmSjFGPXt-20">
          <mxGeometry relative="1" as="geometry" />
        </mxCell>
        <mxCell id="zODg9NQr7k5FmSjFGPXt-9" value="i &amp;lt;= m" style="rhombus;whiteSpace=wrap;html=1;" vertex="1" parent="WIyWlLk6GJQsqaUBKTNV-1">
          <mxGeometry x="390" y="290" width="80" height="80" as="geometry" />
        </mxCell>
        <mxCell id="zODg9NQr7k5FmSjFGPXt-10" value="" style="edgeStyle=orthogonalEdgeStyle;rounded=0;orthogonalLoop=1;jettySize=auto;html=1;" edge="1" parent="WIyWlLk6GJQsqaUBKTNV-1" source="zODg9NQr7k5FmSjFGPXt-14" target="zODg9NQr7k5FmSjFGPXt-16">
          <mxGeometry relative="1" as="geometry">
            <Array as="points">
              <mxPoint x="180" y="420" />
            </Array>
          </mxGeometry>
        </mxCell>
        <mxCell id="zODg9NQr7k5FmSjFGPXt-11" value="TRUE" style="edgeLabel;html=1;align=center;verticalAlign=middle;resizable=0;points=[];" vertex="1" connectable="0" parent="zODg9NQr7k5FmSjFGPXt-10">
          <mxGeometry x="-0.5184" y="-2" relative="1" as="geometry">
            <mxPoint as="offset" />
          </mxGeometry>
        </mxCell>
        <mxCell id="zODg9NQr7k5FmSjFGPXt-12" style="edgeStyle=orthogonalEdgeStyle;rounded=0;orthogonalLoop=1;jettySize=auto;html=1;entryX=1;entryY=0.5;entryDx=0;entryDy=0;" edge="1" parent="WIyWlLk6GJQsqaUBKTNV-1" source="zODg9NQr7k5FmSjFGPXt-14" target="zODg9NQr7k5FmSjFGPXt-18">
          <mxGeometry relative="1" as="geometry">
            <mxPoint x="380" y="610" as="targetPoint" />
            <Array as="points">
              <mxPoint x="390" y="420" />
              <mxPoint x="390" y="700" />
            </Array>
          </mxGeometry>
        </mxCell>
        <mxCell id="zODg9NQr7k5FmSjFGPXt-13" value="FALSE" style="edgeLabel;html=1;align=center;verticalAlign=middle;resizable=0;points=[];" vertex="1" connectable="0" parent="zODg9NQr7k5FmSjFGPXt-12">
          <mxGeometry x="-0.9074" y="3" relative="1" as="geometry">
            <mxPoint as="offset" />
          </mxGeometry>
        </mxCell>
        <mxCell id="zODg9NQr7k5FmSjFGPXt-14" value="i % 2 != 0" style="rhombus;whiteSpace=wrap;html=1;" vertex="1" parent="WIyWlLk6GJQsqaUBKTNV-1">
          <mxGeometry x="260" y="380" width="80" height="80" as="geometry" />
        </mxCell>
        <mxCell id="zODg9NQr7k5FmSjFGPXt-15" value="" style="edgeStyle=orthogonalEdgeStyle;rounded=0;orthogonalLoop=1;jettySize=auto;html=1;" edge="1" parent="WIyWlLk6GJQsqaUBKTNV-1" source="zODg9NQr7k5FmSjFGPXt-16" target="zODg9NQr7k5FmSjFGPXt-18">
          <mxGeometry relative="1" as="geometry" />
        </mxCell>
        <mxCell id="zODg9NQr7k5FmSjFGPXt-16" value="tek_cemi = tek_cemi + i" style="whiteSpace=wrap;html=1;" vertex="1" parent="WIyWlLk6GJQsqaUBKTNV-1">
          <mxGeometry x="150" y="495" width="130" height="60" as="geometry" />
        </mxCell>
        <mxCell id="zODg9NQr7k5FmSjFGPXt-17" style="edgeStyle=orthogonalEdgeStyle;rounded=0;orthogonalLoop=1;jettySize=auto;html=1;" edge="1" parent="WIyWlLk6GJQsqaUBKTNV-1" source="zODg9NQr7k5FmSjFGPXt-18">
          <mxGeometry relative="1" as="geometry">
            <mxPoint x="430" y="270" as="targetPoint" />
            <Array as="points">
              <mxPoint x="130" y="700" />
              <mxPoint x="130" y="270" />
            </Array>
          </mxGeometry>
        </mxCell>
        <mxCell id="zODg9NQr7k5FmSjFGPXt-18" value="i = i + 1" style="whiteSpace=wrap;html=1;" vertex="1" parent="WIyWlLk6GJQsqaUBKTNV-1">
          <mxGeometry x="220" y="670" width="120" height="60" as="geometry" />
        </mxCell>
        <mxCell id="zODg9NQr7k5FmSjFGPXt-19" value="" style="edgeStyle=orthogonalEdgeStyle;rounded=0;orthogonalLoop=1;jettySize=auto;html=1;" edge="1" parent="WIyWlLk6GJQsqaUBKTNV-1" source="zODg9NQr7k5FmSjFGPXt-20" target="zODg9NQr7k5FmSjFGPXt-21">
          <mxGeometry relative="1" as="geometry" />
        </mxCell>
        <mxCell id="zODg9NQr7k5FmSjFGPXt-20" value="tek_cemi" style="shape=document;whiteSpace=wrap;html=1;boundedLbl=1;" vertex="1" parent="WIyWlLk6GJQsqaUBKTNV-1">
          <mxGeometry x="530" y="420" width="120" height="80" as="geometry" />
        </mxCell>
        <mxCell id="zODg9NQr7k5FmSjFGPXt-21" value="End" style="rounded=1;whiteSpace=wrap;html=1;" vertex="1" parent="WIyWlLk6GJQsqaUBKTNV-1">
          <mxGeometry x="530" y="590" width="120" height="60" as="geometry" />
        </mxCell>
      </root>
    </mxGraphModel>
  </diagram>
</mxfile>
